# Blender v2.92.0 OBJ File: 'proto.blend'
# www.blender.org
mtllib proto.mtl
o Cube.004
v 0.125000 0.000000 0.250000
v 0.125000 0.125000 0.250000
v 0.125000 0.000000 -0.062500
v 0.125000 0.125000 0.062500
v 0.312500 0.000000 0.250000
v 0.312500 0.125000 0.250000
v 0.312500 0.000000 -0.062500
v 0.312500 0.125000 0.062500
v 0.125000 0.312500 -0.187500
v 0.125000 0.500000 0.000000
v 0.312500 0.312500 -0.187500
v 0.312500 0.500000 0.000000
v 0.062500 0.473857 0.228063
v 0.062500 0.966261 0.141239
v 0.062500 0.408739 -0.141239
v 0.062500 0.901143 -0.228064
v 0.375000 0.473857 0.228063
v 0.375000 0.966261 0.141239
v 0.375000 0.408739 -0.141239
v 0.375000 0.901143 -0.228064
v 0.211105 1.230193 0.156250
v 0.167693 1.476395 0.156250
v 0.211105 1.230193 -0.156250
v 0.167693 1.476395 -0.156250
v 0.457307 1.273605 0.156250
v 0.413895 1.519807 0.156250
v 0.457307 1.273605 -0.156250
v 0.413895 1.519807 -0.156250
v 0.328704 0.743216 0.125000
v 0.241880 1.235620 0.125000
v 0.328704 0.743216 -0.125000
v 0.241880 1.235620 -0.125000
v 0.513356 0.775775 0.125000
v 0.426532 1.268178 0.125000
v 0.513356 0.775775 -0.125000
v 0.426532 1.268178 -0.125000
v 0.218750 0.750000 0.156250
v 0.218750 1.250000 0.156250
v 0.218750 0.750000 -0.156250
v 0.218750 1.250000 -0.156250
v 0.250000 1.187500 -0.187500
v 0.250000 1.500000 0.187500
v 0.250000 1.500000 -0.187500
v 0.125000 0.312500 0.000000
v 0.312500 0.312500 0.000000
v 0.125000 0.500000 0.187500
v 0.312500 0.500000 0.187500
v 0.125000 1.875000 0.375000
v 0.125000 1.625000 0.312500
v 0.216583 2.000000 -0.058671
v 0.249486 1.750000 -0.250000
v 0.182151 1.567339 0.047099
v 0.165553 1.743532 0.109043
v 0.227753 1.631468 -0.123090
v 0.211155 1.807661 -0.061146
v 0.242521 1.567339 0.063275
v 0.225923 1.743532 0.125219
v 0.288123 1.631468 -0.106913
v 0.271525 1.807661 -0.044970
v 0.271958 1.893166 -0.288064
v 0.277490 1.834435 -0.308712
v 0.337861 1.834435 -0.292536
v 0.332328 1.893166 -0.271888
v -0.125000 0.000000 0.250000
v -0.125000 0.125000 0.250000
v -0.125000 0.000000 -0.062500
v -0.125000 0.125000 0.062500
v -0.312500 0.000000 0.250000
v -0.312500 0.125000 0.250000
v -0.312500 0.000000 -0.062500
v -0.312500 0.125000 0.062500
v -0.125000 0.312500 -0.187500
v -0.125000 0.500000 0.000000
v -0.312500 0.312500 -0.187500
v -0.312500 0.500000 0.000000
v -0.062500 0.473857 0.228063
v -0.062500 0.966261 0.141239
v -0.062500 0.408739 -0.141239
v -0.062500 0.901143 -0.228064
v -0.375000 0.473857 0.228063
v -0.375000 0.966261 0.141239
v -0.375000 0.408739 -0.141239
v -0.375000 0.901143 -0.228064
v -0.211105 1.230193 0.156250
v -0.167693 1.476395 0.156250
v -0.211105 1.230193 -0.156250
v -0.167693 1.476395 -0.156250
v -0.457307 1.273605 0.156250
v -0.413895 1.519807 0.156250
v -0.457307 1.273605 -0.156250
v -0.413895 1.519807 -0.156250
v -0.328704 0.743216 0.125000
v -0.241880 1.235620 0.125000
v -0.328704 0.743216 -0.125000
v -0.241880 1.235620 -0.125000
v -0.513356 0.775775 0.125000
v -0.426532 1.268178 0.125000
v -0.513356 0.775775 -0.125000
v -0.426532 1.268178 -0.125000
v -0.218750 0.750000 0.156250
v -0.218750 1.250000 0.156250
v -0.218750 0.750000 -0.156250
v -0.218750 1.250000 -0.156250
v -0.125000 0.312500 0.000000
v -0.312500 0.312500 0.000000
v -0.125000 0.500000 0.187500
v -0.312500 0.500000 0.187500
v -0.125000 1.875000 0.375000
v -0.187500 2.000000 0.062500
v -0.125000 1.625000 0.312500
v -0.216583 2.000000 -0.058671
v -0.182151 1.567339 0.047099
v -0.165553 1.743532 0.109043
v -0.227753 1.631468 -0.123090
v -0.211155 1.807661 -0.061146
v -0.242521 1.567339 0.063275
v -0.225923 1.743532 0.125219
v -0.288123 1.631468 -0.106913
v -0.271525 1.807661 -0.044970
v -0.271958 1.893166 -0.288064
v -0.277490 1.834435 -0.308712
v -0.337861 1.834435 -0.292536
v -0.332328 1.893166 -0.271888
v -0.250000 1.500000 0.187500
v 0.187500 2.000000 0.062500
v -0.251065 2.000000 -0.187500
v 0.187500 1.625000 -0.062500
v 0.251065 2.000000 -0.187500
v -0.187500 1.625000 -0.062500
v -0.249486 1.750000 -0.250000
v -0.225000 1.478125 0.140625
v -0.225000 1.646875 0.140625
v -0.225000 1.478125 -0.140625
v -0.225000 1.646875 -0.140625
v 0.225000 1.478125 0.140625
v 0.225000 1.646875 0.140625
v 0.225000 1.478125 -0.140625
v 0.225000 1.646875 -0.140625
v -0.000000 1.478125 -0.281250
v -0.000000 1.646875 -0.281250
v -0.000000 1.478125 0.281250
v -0.000000 1.646875 0.281250
v 0.216583 2.000000 -0.058671
v 0.250000 1.750000 -0.250000
v 0.297464 2.187500 -0.360523
v 0.313640 2.125000 -0.420893
v 0.237093 2.187500 -0.376699
v 0.253270 2.125000 -0.437070
v 0.187500 1.750000 -0.250000
v 0.156212 2.000000 -0.074847
v -0.216583 2.000000 -0.058671
v -0.297464 2.187500 -0.360523
v -0.313640 2.125000 -0.420893
v -0.237093 2.187500 -0.376699
v -0.253270 2.125000 -0.437070
v -0.187500 1.750000 -0.250000
v -0.156212 2.000000 -0.074847
v -0.250000 1.750000 -0.250000
v 0.165553 1.743532 0.109043
v 0.225923 1.743532 0.125219
v 0.271958 1.893166 -0.288064
v 0.332328 1.893166 -0.271888
v -0.165553 1.743532 0.109043
v -0.225923 1.743532 0.125219
v -0.271958 1.893166 -0.288064
v -0.332328 1.893166 -0.271888
v 0.250000 1.187500 0.187500
v -0.250000 1.187500 0.187500
v -0.250000 1.187500 -0.187500
v -0.250000 1.500000 -0.187500
v 0.186986 1.750000 -0.250000
v -0.188565 2.000000 -0.187500
v 0.188565 2.000000 -0.187500
v -0.186986 1.750000 -0.250000
v -0.162500 0.761937 -0.061751
v -0.162500 1.081999 -0.118187
v -0.162500 0.705501 -0.381814
v -0.162500 1.025563 -0.438249
v 0.162500 0.761937 -0.061751
v 0.162500 1.081999 -0.118187
v 0.162500 0.705501 -0.381814
v 0.162500 1.025563 -0.438249
v -0.146250 0.795724 -0.231458
v -0.146250 1.019792 -0.419474
v -0.146250 0.607708 -0.455526
v -0.146250 0.831776 -0.643542
v 0.146250 0.795724 -0.231458
v 0.146250 1.019792 -0.419474
v 0.146250 0.607708 -0.455526
v 0.146250 0.831776 -0.643542
v -0.130000 0.699458 -0.406167
v -0.130000 0.829458 -0.631333
v -0.130000 0.474292 -0.536167
v -0.130000 0.604292 -0.761333
v 0.130000 0.699458 -0.406167
v 0.130000 0.829458 -0.631333
v 0.130000 0.474292 -0.536167
v 0.130000 0.604292 -0.761333
v -0.113750 0.489021 -0.539120
v -0.113750 0.635255 -0.713395
v -0.113750 0.314746 -0.685355
v -0.113750 0.460980 -0.859630
v 0.113750 0.489021 -0.539120
v 0.113750 0.635255 -0.713395
v 0.113750 0.314746 -0.685355
v 0.113750 0.460980 -0.859630
v -0.081250 0.340672 -0.695591
v -0.081250 0.473784 -0.788797
v -0.081250 0.247466 -0.828703
v -0.081250 0.380578 -0.921909
v 0.081250 0.340672 -0.695591
v 0.081250 0.473784 -0.788797
v 0.081250 0.247466 -0.828703
v 0.081250 0.380578 -0.921909
vt 0.000000 0.203125
vt 0.000000 0.234375
vt 0.046875 0.234375
vt 0.078125 0.203125
vt 0.187500 0.203125
vt 0.218750 0.234375
vt 0.265625 0.234375
vt 0.265625 0.203125
vt 0.156250 0.328125
vt 0.156250 0.359375
vt 0.109375 0.359375
vt 0.109375 0.328125
vt 0.156250 0.328125
vt 0.203125 0.328125
vt 0.203125 0.406250
vt 0.156250 0.406250
vt 0.156250 0.406250
vt 0.109375 0.406250
vt 0.250000 0.328125
vt 0.203125 0.281250
vt 0.156250 0.281250
vt 0.203125 0.328125
vt 0.109375 0.281250
vt 0.062500 0.281250
vt 0.015625 0.328125
vt 0.062500 0.328125
vt 0.156250 0.328125
vt 0.109375 0.328125
vt 0.109375 0.281250
vt 0.156250 0.281250
vt 0.750000 0.171875
vt 0.750000 0.296875
vt 0.656250 0.296875
vt 0.656250 0.171875
vt 1.000000 0.171875
vt 1.000000 0.296875
vt 0.921875 0.296875
vt 0.921875 0.171875
vt 0.828125 0.296875
vt 0.828125 0.171875
vt 0.828125 0.296875
vt 0.906250 0.296875
vt 0.906250 0.390625
vt 0.828125 0.390625
vt 0.828125 0.390625
vt 0.750000 0.390625
vt 0.703125 0.875000
vt 0.703125 0.937500
vt 0.625000 0.937500
vt 0.625000 0.875000
vt 0.906250 0.875000
vt 0.906250 0.937500
vt 0.843750 0.937500
vt 0.843750 0.875000
vt 0.765625 0.937500
vt 0.765625 0.875000
vt 0.781250 1.000000
vt 0.781250 0.937500
vt 0.859375 0.937500
vt 0.859375 1.000000
vt 0.703125 1.000000
vt 0.703125 0.937500
vt 0.781250 0.937500
vt 0.781250 1.000000
vt 0.625000 0.687500
vt 0.625000 0.812500
vt 0.562500 0.812500
vt 0.562500 0.687500
vt 0.781250 0.687500
vt 0.781250 0.812500
vt 0.734375 0.812500
vt 0.734375 0.687500
vt 0.671875 0.812500
vt 0.671875 0.687500
vt 0.625000 0.812500
vt 0.671875 0.812500
vt 0.671875 0.875000
vt 0.625000 0.875000
vt 0.578125 0.390625
vt 0.578125 0.515625
vt 0.500000 0.515625
vt 0.500000 0.390625
vt 0.687500 0.390625
vt 0.687500 0.515625
vt 0.390625 0.390625
vt 0.390625 0.515625
vt 0.625000 0.515625
vt 0.625000 0.593750
vt 0.531250 0.593750
vt 0.531250 0.515625
vt 0.531250 0.687500
vt 0.406250 0.687500
vt 0.406250 0.593750
vt 0.265625 0.203125
vt 0.312500 0.203125
vt 0.312500 0.281250
vt 0.265625 0.281250
vt 0.109375 0.234375
vt 0.156250 0.234375
vt 0.156250 0.281250
vt 0.109375 0.281250
vt 0.265625 0.281250
vt 0.312500 0.281250
vt 0.312500 0.328125
vt 0.265625 0.328125
vt 0.234375 0.906250
vt 0.216969 1.000000
vt 0.158031 1.000000
vt 0.140625 0.906250
vt 0.296875 0.703125
vt 0.218750 0.671875
vt 0.234375 0.609375
vt 0.328125 0.609375
vt 0.375000 0.640625
vt 0.327168 0.703125
vt 0.218750 0.609375
vt 0.156250 0.671875
vt 0.156250 0.609375
vt 0.875000 0.625000
vt 0.875000 0.671875
vt 0.828125 0.671875
vt 0.828125 0.625000
vt 0.921875 0.687500
vt 0.921875 0.671875
vt 0.984375 0.671875
vt 0.984375 0.687500
vt 0.937500 0.625000
vt 0.937500 0.671875
vt 0.890625 0.671875
vt 0.890625 0.625000
vt 0.875000 0.687500
vt 0.875000 0.671875
vt 1.000000 0.687500
vt 0.984375 0.687500
vt 0.984375 0.671875
vt 1.000000 0.671875
vt 0.765625 0.671875
vt 0.765625 0.656250
vt 1.000000 0.656250
vt 1.000000 0.671875
vt 0.265625 0.406250
vt 0.187500 0.406250
vt 0.218750 0.437500
vt 0.265625 0.437500
vt 0.078125 0.406250
vt 0.000000 0.406250
vt 0.000000 0.437500
vt 0.046875 0.437500
vt 0.109375 0.531250
vt 0.156250 0.531250
vt 0.156250 0.562500
vt 0.109375 0.562500
vt 0.203125 0.531250
vt 0.203125 0.609375
vt 0.156250 0.609375
vt 0.156250 0.531250
vt 0.109375 0.609375
vt 0.156250 0.609375
vt 0.015625 0.531250
vt 0.062500 0.531250
vt 0.109375 0.484375
vt 0.062500 0.484375
vt 0.156250 0.484375
vt 0.203125 0.531250
vt 0.250000 0.531250
vt 0.203125 0.484375
vt 0.265625 0.531250
vt 0.265625 0.484375
vt 0.312500 0.484375
vt 0.312500 0.531250
vt 0.484375 0.171875
vt 0.578125 0.171875
vt 0.578125 0.296875
vt 0.484375 0.296875
vt 0.656250 0.171875
vt 0.656250 0.296875
vt 0.312500 0.171875
vt 0.406250 0.171875
vt 0.406250 0.296875
vt 0.312500 0.296875
vt 0.562500 0.296875
vt 0.562500 0.390625
vt 0.484375 0.390625
vt 0.484375 0.296875
vt 0.406250 0.390625
vt 0.484375 0.390625
vt 0.484375 0.875000
vt 0.562500 0.875000
vt 0.562500 0.937500
vt 0.484375 0.937500
vt 0.625000 0.875000
vt 0.625000 0.937500
vt 0.343750 0.875000
vt 0.421875 0.875000
vt 0.421875 0.937500
vt 0.343750 0.937500
vt 0.500000 0.937500
vt 0.578125 0.937500
vt 0.578125 1.000000
vt 0.500000 1.000000
vt 0.421875 0.937500
vt 0.500000 0.937500
vt 0.500000 1.000000
vt 0.421875 1.000000
vt 0.453125 0.687500
vt 0.515625 0.687500
vt 0.515625 0.812500
vt 0.453125 0.812500
vt 0.562500 0.687500
vt 0.562500 0.812500
vt 0.343750 0.687500
vt 0.406250 0.687500
vt 0.406250 0.812500
vt 0.343750 0.812500
vt 0.406250 0.687500
vt 0.406250 0.812500
vt 0.453125 0.812500
vt 0.453125 0.875000
vt 0.406250 0.875000
vt 0.406250 0.812500
vt 0.312500 0.390625
vt 0.312500 0.515625
vt 0.312500 0.515625
vt 0.406250 0.515625
vt 0.312500 0.593750
vt 0.312500 0.406250
vt 0.265625 0.406250
vt 0.156250 0.437500
vt 0.156250 0.484375
vt 0.109375 0.484375
vt 0.109375 0.437500
vt 0.156250 0.531250
vt 0.109375 0.531250
vt 0.078125 0.703125
vt 0.046875 0.609375
vt 0.140625 0.609375
vt 0.047832 0.703125
vt 0.000000 0.640625
vt 0.890625 0.812500
vt 0.937500 0.812500
vt 0.937500 0.859375
vt 0.890625 0.859375
vt 0.921875 0.859375
vt 0.984375 0.859375
vt 0.984375 0.875000
vt 0.921875 0.875000
vt 0.828125 0.812500
vt 0.875000 0.812500
vt 0.875000 0.859375
vt 0.828125 0.859375
vt 0.890625 0.812500
vt 0.875000 0.812500
vt 0.875000 0.859375
vt 0.890625 0.859375
vt 0.875000 0.875000
vt 0.875000 0.859375
vt 1.000000 0.859375
vt 1.000000 0.875000
vt 0.984375 0.875000
vt 0.984375 0.859375
vt 0.875000 0.875000
vt 0.765625 0.875000
vt 0.765625 0.859375
vt 0.875000 0.859375
vt 1.000000 0.843750
vt 1.000000 0.859375
vt 0.765625 0.859375
vt 0.765625 0.843750
vt 0.218617 0.671875
vt 0.234176 0.734375
vt 0.140824 0.734375
vt 0.156383 0.671875
vt 0.250000 0.796875
vt 0.125000 0.796875
vt 0.796875 0.468750
vt 0.687500 0.468750
vt 0.796875 0.390625
vt 0.250000 0.859375
vt 0.125000 0.859375
vt 0.406250 0.125000
vt 0.406250 0.171875
vt 0.328125 0.171875
vt 0.328125 0.125000
vt 0.562500 0.125000
vt 0.562500 0.171875
vt 0.484375 0.171875
vt 0.484375 0.125000
vt 0.640625 0.125000
vt 0.640625 0.171875
vt 0.562500 0.171875
vt 0.562500 0.125000
vt 0.484375 0.125000
vt 0.484375 0.171875
vt 0.187500 0.039062
vt 0.250000 0.078125
vt 0.250000 0.156250
vt 0.187500 0.195312
vt 0.062500 0.195312
vt 0.000000 0.156250
vt 0.000000 0.078125
vt 0.062500 0.039062
vt 0.125000 0.156250
vt 0.125000 0.078125
vt 0.125000 0.078125
vt 0.125000 0.156250
vt 0.718750 0.125000
vt 0.718750 0.171875
vt 0.640625 0.171875
vt 0.640625 0.125000
vt 0.250000 0.171875
vt 0.250000 0.125000
vt 0.109375 0.875000
vt 0.093750 0.875000
vt 0.093750 0.859375
vt 0.109375 0.859375
vt 0.093750 0.765625
vt 0.109375 0.765625
vt 0.109375 0.859375
vt 0.093750 0.859375
vt 0.015625 0.875000
vt 0.015625 0.859375
vt 0.093750 0.859375
vt 0.093750 0.875000
vt 0.043175 0.750000
vt 0.082031 0.843750
vt 0.068359 0.859375
vt 0.000000 0.812500
vt 0.275391 0.984375
vt 0.343750 0.937500
vt 0.300575 0.875000
vt 0.261719 0.968750
vt 0.015625 1.000000
vt 0.015625 0.984375
vt 0.000000 0.984375
vt 0.000000 1.000000
vt -0.000000 0.890625
vt 0.000000 0.984375
vt 0.015625 0.984375
vt 0.015625 0.890625
vt 0.093750 0.984375
vt 0.015625 0.984375
vt 0.015625 1.000000
vt 0.093750 1.000000
vt 0.066200 0.875000
vt 0.109375 0.937500
vt 0.041016 0.984375
vt 0.027344 0.968750
vt 0.250000 0.812500
vt 0.318359 0.859375
vt 0.332031 0.843750
vt 0.293175 0.750000
vt 0.875000 0.687500
vt 0.765625 0.687500
vt 0.765625 0.671875
vt 0.875000 0.671875
vt 0.750000 0.515625
vt 0.750000 0.593750
vt 0.140625 0.859375
vt 0.140625 0.796875
vt 0.234375 0.796875
vt 0.234375 0.859375
vt 0.250000 0.062500
vt 0.250000 0.125000
vt 0.312500 0.125000
vt 0.312500 0.062500
vt 0.031250 0.000000
vt 0.031250 0.031250
vt 0.000000 0.031250
vt 0.000000 0.000000
vt 0.562500 0.062500
vt 0.562500 0.125000
vt 0.500000 0.125000
vt 0.500000 0.062500
vt 0.562500 0.000000
vt 0.500000 0.000000
vt 0.312500 0.000000
vt 0.312500 0.062500
vt 0.250000 0.062500
vt 0.250000 -0.000000
vt 0.312500 0.062500
vt 0.312500 0.125000
vt 0.375000 0.125000
vt 0.375000 0.062500
vt 0.062500 0.000000
vt 0.062500 0.031250
vt 0.031250 0.031250
vt 0.031250 0.000000
vt 0.625000 0.062500
vt 0.625000 0.125000
vt 0.562500 0.125000
vt 0.562500 0.062500
vt 0.625000 0.000000
vt 0.562500 0.000000
vt 0.375000 0.000000
vt 0.375000 0.062500
vt 0.312500 0.062500
vt 0.312500 -0.000000
vt 0.375000 0.078125
vt 0.375000 0.125000
vt 0.421875 0.125000
vt 0.421875 0.078125
vt 0.093750 0.000000
vt 0.093750 0.031250
vt 0.062500 0.031250
vt 0.062500 0.000000
vt 0.671875 0.078125
vt 0.671875 0.125000
vt 0.625000 0.125000
vt 0.625000 0.078125
vt 0.671875 0.015625
vt 0.671875 0.062500
vt 0.625000 0.062500
vt 0.625000 0.015625
vt 0.421875 0.015625
vt 0.421875 0.062500
vt 0.375000 0.062500
vt 0.375000 0.015625
vt 0.421875 0.078125
vt 0.421875 0.125000
vt 0.468750 0.125000
vt 0.468750 0.078125
vt 0.125000 0.000000
vt 0.125000 0.031250
vt 0.093750 0.031250
vt 0.093750 0.000000
vt 0.718750 0.078125
vt 0.718750 0.125000
vt 0.671875 0.125000
vt 0.671875 0.078125
vt 0.718750 0.015625
vt 0.718750 0.062500
vt 0.671875 0.062500
vt 0.671875 0.015625
vt 0.468750 0.015625
vt 0.468750 0.062500
vt 0.421875 0.062500
vt 0.421875 0.015625
vt 0.500000 0.125000
vt 0.468750 0.125000
vt 0.468750 0.093750
vt 0.500000 0.093750
vt 0.156250 0.000000
vt 0.156250 0.031250
vt 0.125000 0.031250
vt 0.125000 0.000000
vt 0.750000 0.093750
vt 0.750000 0.125000
vt 0.718750 0.125000
vt 0.718750 0.093750
vt 0.750000 0.031250
vt 0.750000 0.062500
vt 0.718750 0.062500
vt 0.718750 0.031250
vt 0.500000 0.031250
vt 0.500000 0.062500
vt 0.468750 0.062500
vt 0.468750 0.031250
vn -1.0000 0.0000 0.0000
vn 1.0000 0.0000 0.0000
vn 0.0000 0.0000 1.0000
vn 0.0000 -1.0000 0.0000
vn 0.0000 1.0000 0.0000
vn 0.0000 0.7071 -0.7071
vn 0.0000 -0.1736 -0.9848
vn 0.0000 0.1736 0.9848
vn 0.0000 -0.9848 0.1736
vn 0.0000 0.9848 -0.1736
vn -0.9848 -0.1736 0.0000
vn 0.0000 0.0000 -1.0000
vn 0.9848 0.1736 0.0000
vn 0.1736 -0.9848 0.0000
vn -0.1736 0.9848 0.0000
vn 0.0000 -0.3714 -0.9285
vn 0.0000 0.3162 0.9487
vn 0.0000 -0.7071 0.7071
vn 0.9842 -0.0509 0.1697
vn 0.9643 -0.0774 0.2532
vn 0.0000 -0.2425 0.9701
vn -0.9659 0.0000 -0.2588
vn 0.1879 -0.6875 -0.7014
vn 0.9659 0.0000 0.2588
vn -0.2432 -0.3420 0.9077
vn 0.0885 -0.9397 -0.3304
vn 0.2432 0.3420 -0.9077
vn 0.9848 -0.1736 0.0000
vn -0.9848 0.1736 0.0000
vn -0.1736 -0.9848 0.0000
vn 0.1736 0.9848 0.0000
vn -0.9842 -0.0509 0.1697
vn -0.9643 -0.0774 0.2532
vn 0.9659 0.0000 -0.2588
vn -0.1879 -0.6875 -0.7014
vn -0.9659 0.0000 0.2588
vn 0.2432 -0.3420 0.9077
vn -0.0885 -0.9397 -0.3304
vn -0.2432 0.3420 -0.9077
vn 0.0885 0.9397 0.3304
vn 0.0000 0.9285 0.3714
vn 0.0000 -0.8321 -0.5547
vn 0.5300 0.0000 -0.8480
vn -0.5300 0.0000 0.8480
vn 0.5300 0.0000 0.8480
vn -0.5300 0.0000 -0.8480
vn 0.1830 0.7071 -0.6830
vn 0.1169 -0.4441 -0.8883
vn -0.1332 0.8575 0.4970
vn 0.9687 -0.0433 0.2446
vn 0.9685 0.0385 -0.2462
vn -0.1830 0.7071 -0.6830
vn -0.1169 -0.4441 -0.8883
vn 0.1332 0.8575 0.4970
vn -0.9687 -0.0433 0.2446
vn -0.9685 0.0385 -0.2462
vn -0.0885 0.9397 0.3304
vn 0.0000 0.2425 -0.9701
vn 0.0000 -0.6428 -0.7660
vn 0.0000 -0.7660 0.6428
vn 0.0000 0.7660 -0.6428
vn 0.0000 -0.8660 -0.5000
vn 0.0000 -0.5000 0.8660
vn 0.0000 0.5000 -0.8660
vn 0.0000 -0.7660 -0.6428
vn 0.0000 -0.6428 0.7660
vn 0.0000 0.6428 -0.7660
vn 0.0000 -0.5736 -0.8192
vn 0.0000 -0.8192 0.5736
vn 0.0000 0.8192 -0.5736
usemtl Material
s off
f 1/1/1 2/2/1 4/3/1 3/4/1
f 7/5/2 8/6/2 6/7/2 5/8/2
f 5/9/3 6/10/3 2/11/3 1/12/3
f 3/13/4 7/14/4 5/15/4 1/16/4
f 8/17/5 4/18/5 2/11/5 6/10/5
f 47/19/2 45/20/2 11/21/2 12/22/2
f 7/5/2 11/21/2 45/20/2 8/6/2
f 9/23/1 44/24/1 46/25/1 10/26/1
f 10/27/6 12/28/6 11/29/6 9/30/6
f 9/23/1 3/4/1 4/3/1 44/24/1
f 13/31/1 14/32/1 16/33/1 15/34/1
f 15/35/7 16/36/7 20/37/7 19/38/7
f 19/38/2 20/37/2 18/39/2 17/40/2
f 17/40/8 18/39/8 14/32/8 13/31/8
f 15/41/9 19/42/9 17/43/9 13/44/9
f 20/45/10 16/46/10 14/32/10 18/39/10
f 21/47/11 22/48/11 24/49/11 23/50/11
f 23/51/12 24/52/12 28/53/12 27/54/12
f 27/54/13 28/53/13 26/55/13 25/56/13
f 25/56/3 26/55/3 22/48/3 21/47/3
f 23/57/14 27/58/14 25/59/14 21/60/14
f 28/61/15 24/62/15 22/63/15 26/64/15
f 29/65/11 30/66/11 32/67/11 31/68/11
f 31/69/12 32/70/12 36/71/12 35/72/12
f 35/72/13 36/71/13 34/73/13 33/74/13
f 33/74/3 34/73/3 30/66/3 29/65/3
f 31/75/14 35/76/14 33/77/14 29/78/14
f 39/79/2 40/80/2 38/81/2 37/82/2
f 39/79/12 102/83/12 103/84/12 40/80/12
f 100/85/3 37/82/3 38/81/3 101/86/3
f 41/87/2 43/88/2 42/89/2 167/90/2
f 42/89/5 43/91/5 170/92/5 124/93/5
f 7/94/16 3/95/16 9/96/16 11/97/16
f 4/98/17 8/99/17 45/100/17 44/101/17
f 44/102/18 45/103/18 47/104/18 46/105/18
f 127/106/4 49/107/4 110/108/4 129/109/4
f 125/110/19 48/111/19 49/112/19 127/113/19
f 127/113/20 51/114/20 50/115/20 125/110/20
f 49/116/21 48/111/21 108/117/21 110/118/21
f 52/119/22 53/120/22 55/121/22 54/122/22
f 58/123/23 54/124/23 61/125/23 62/126/23
f 58/127/24 59/128/24 57/129/24 56/130/24
f 56/130/25 57/129/25 53/120/25 52/119/25
f 54/124/26 58/123/26 56/131/26 52/132/26
f 61/133/27 60/134/27 63/135/27 62/136/27
f 54/122/22 55/121/22 60/137/22 61/138/22
f 59/128/24 58/127/24 62/139/24 63/140/24
f 64/141/2 66/142/2 67/143/2 65/144/2
f 70/145/1 68/146/1 69/147/1 71/148/1
f 68/149/3 64/150/3 65/151/3 69/152/3
f 66/153/4 64/154/4 68/155/4 70/156/4
f 71/157/5 69/152/5 65/151/5 67/158/5
f 107/159/1 75/160/1 74/161/1 105/162/1
f 70/145/1 71/148/1 105/162/1 74/161/1
f 72/163/2 73/164/2 106/165/2 104/166/2
f 73/167/6 72/168/6 74/169/6 75/170/6
f 72/163/2 104/166/2 67/143/2 66/142/2
f 76/171/2 78/172/2 79/173/2 77/174/2
f 78/172/7 82/175/7 83/176/7 79/173/7
f 82/177/1 80/178/1 81/179/1 83/180/1
f 80/178/8 76/171/8 77/174/8 81/179/8
f 78/181/9 76/182/9 80/183/9 82/184/9
f 83/185/10 81/179/10 77/174/10 79/186/10
f 84/187/28 86/188/28 87/189/28 85/190/28
f 86/188/12 90/191/12 91/192/12 87/189/12
f 90/193/29 88/194/29 89/195/29 91/196/29
f 88/194/3 84/187/3 85/190/3 89/195/3
f 86/197/30 84/198/30 88/199/30 90/200/30
f 91/201/31 89/202/31 85/203/31 87/204/31
f 92/205/28 94/206/28 95/207/28 93/208/28
f 94/206/12 98/209/12 99/210/12 95/207/12
f 98/211/29 96/212/29 97/213/29 99/214/29
f 96/215/3 92/205/3 93/208/3 97/216/3
f 94/217/30 92/218/30 96/219/30 98/220/30
f 102/221/1 100/85/1 101/86/1 103/222/1
f 169/223/1 168/224/1 124/93/1 170/225/1
f 70/226/16 74/169/16 72/168/16 66/227/16
f 67/228/17 104/229/17 105/230/17 71/231/17
f 104/229/18 106/232/18 107/233/18 105/230/18
f 109/234/32 129/235/32 110/236/32 108/117/32
f 129/235/33 109/234/33 111/237/33 130/238/33
f 112/239/34 114/240/34 115/241/34 113/242/34
f 118/243/35 122/244/35 121/245/35 114/246/35
f 118/247/36 116/248/36 117/249/36 119/250/36
f 116/251/37 112/252/37 113/253/37 117/254/37
f 114/246/38 112/255/38 116/256/38 118/243/38
f 121/257/39 122/258/39 123/259/39 120/260/39
f 163/261/40 165/262/40 166/263/40 164/264/40
f 114/240/34 121/265/34 120/266/34 115/241/34
f 119/250/36 123/267/36 122/268/36 118/247/36
f 48/269/41 125/270/41 109/271/41 108/272/41
f 109/271/5 125/270/5 128/273/5 126/274/5
f 37/275/4 100/276/4 102/83/4 39/277/4
f 51/278/42 127/106/42 129/109/42 130/279/42
f 131/280/1 132/281/1 134/282/1 133/283/1
f 139/284/43 140/285/43 138/286/43 137/287/43
f 137/288/2 138/289/2 136/290/2 135/291/2
f 141/292/44 142/293/44 132/281/44 131/280/44
f 139/294/4 137/295/4 135/296/4 141/297/4
f 140/298/5 134/299/5 132/300/5 142/301/5
f 138/302/5 140/298/5 142/301/5 136/303/5
f 133/304/4 139/294/4 141/297/4 131/305/4
f 135/306/45 136/307/45 142/308/45 141/309/45
f 133/283/46 134/282/46 140/310/46 139/311/46
f 146/312/47 148/313/47 147/314/47 145/315/47
f 144/316/48 149/317/48 148/318/48 146/319/48
f 150/320/49 143/321/49 145/322/49 147/323/49
f 144/324/50 146/325/50 145/326/50 143/327/50
f 154/328/51 157/329/51 156/330/51 155/331/51
f 153/332/52 152/333/52 154/334/52 155/335/52
f 158/336/53 153/337/53 155/338/53 156/339/53
f 157/340/54 154/341/54 152/342/54 151/343/54
f 158/344/55 151/345/55 152/346/55 153/347/55
f 150/348/56 147/349/56 148/350/56 149/351/56
f 160/352/57 162/353/57 161/354/57 159/355/57
f 169/356/12 170/357/12 43/88/12 41/87/12
f 168/224/3 167/90/3 42/89/3 124/93/3
f 174/358/58 172/359/58 173/360/58 171/361/58
f 175/362/1 176/363/1 178/364/1 177/365/1
f 177/366/7 178/367/7 182/368/7 181/369/7
f 181/370/2 182/371/2 180/372/2 179/373/2
f 177/374/9 181/370/9 179/373/9 175/375/9
f 182/376/10 178/377/10 176/378/10 180/379/10
f 183/380/1 184/381/1 186/382/1 185/383/1
f 185/384/59 186/385/59 190/386/59 189/387/59
f 189/388/2 190/389/2 188/390/2 187/391/2
f 185/392/60 189/388/60 187/391/60 183/393/60
f 190/394/61 186/395/61 184/396/61 188/397/61
f 191/398/1 192/399/1 194/400/1 193/401/1
f 193/402/62 194/403/62 198/404/62 197/405/62
f 197/406/2 198/407/2 196/408/2 195/409/2
f 193/410/63 197/411/63 195/412/63 191/413/63
f 198/414/64 194/415/64 192/416/64 196/417/64
f 199/418/1 200/419/1 202/420/1 201/421/1
f 201/422/65 202/423/65 206/424/65 205/425/65
f 205/426/2 206/427/2 204/428/2 203/429/2
f 201/430/66 205/431/66 203/432/66 199/433/66
f 206/434/67 202/435/67 200/436/67 204/437/67
f 207/438/1 208/439/1 210/440/1 209/441/1
f 209/442/68 210/443/68 214/444/68 213/445/68
f 213/446/2 214/447/2 212/448/2 211/449/2
f 209/450/69 213/451/69 211/452/69 207/453/69
f 214/454/70 210/455/70 208/456/70 212/457/70
